<svg width="733" height="211" viewBox="0 0 733 211" fill="none" xmlns="http://www.w3.org/2000/svg">
<path d="M718.715 2.51713C717.896 0.465401 715.569 -0.533949 713.517 0.285018L680.082 13.6309C678.031 14.4498 677.031 16.777 677.85 18.8287C678.669 20.8804 680.996 21.8798 683.048 21.0608L712.768 9.19785L724.631 38.9177C725.45 40.9694 727.777 41.9688 729.829 41.1498C731.88 40.3309 732.88 38.0037 732.061 35.952L718.715 2.51713ZM711.325 2.42166C688.237 56.1848 585.537 164.965 360.106 159.001L359.894 166.999C588.063 173.035 694.096 62.8152 718.675 5.57834L711.325 2.42166Z" fill="black"/>
<rect x="2.5" y="116.5" width="363" height="92" rx="2.5" fill="white" stroke="black" stroke-width="5"/>
<path d="M33.4207 178L38.5427 146.78H43.4207L38.2988 178H33.4207ZM19.4421 170.256L20.25 165.378H44.6402L43.8323 170.256H19.4421ZM22.4451 178L27.5671 146.78H32.4451L27.3232 178H22.4451ZM21.2256 159.402L22.0488 154.524H46.439L45.6159 159.402H21.2256ZM62.9901 146.78V178H56.3895V153.046H56.2066L49.0572 157.527V151.674L56.7858 146.78H62.9901ZM109.217 162.39C109.217 165.795 108.572 168.691 107.281 171.079C106.001 173.467 104.253 175.292 102.037 176.552C99.8321 177.802 97.3524 178.427 94.5983 178.427C91.8239 178.427 89.3341 177.797 87.1288 176.537C84.9235 175.276 83.1806 173.452 81.9002 171.064C80.6197 168.676 79.9794 165.785 79.9794 162.39C79.9794 158.986 80.6197 156.089 81.9002 153.701C83.1806 151.313 84.9235 149.494 87.1288 148.244C89.3341 146.984 91.8239 146.354 94.5983 146.354C97.3524 146.354 99.8321 146.984 102.037 148.244C104.253 149.494 106.001 151.313 107.281 153.701C108.572 156.089 109.217 158.986 109.217 162.39ZM102.525 162.39C102.525 160.185 102.195 158.325 101.534 156.811C100.884 155.297 99.9642 154.148 98.7752 153.366C97.5861 152.583 96.1939 152.192 94.5983 152.192C93.0028 152.192 91.6105 152.583 90.4215 153.366C89.2325 154.148 88.3077 155.297 87.6471 156.811C86.9967 158.325 86.6715 160.185 86.6715 162.39C86.6715 164.596 86.9967 166.455 87.6471 167.97C88.3077 169.484 89.2325 170.632 90.4215 171.415C91.6105 172.197 93.0028 172.588 94.5983 172.588C96.1939 172.588 97.5861 172.197 98.7752 171.415C99.9642 170.632 100.884 169.484 101.534 167.97C102.195 166.455 102.525 164.596 102.525 162.39ZM113.985 178V154.585H120.28V158.671H120.524C120.951 157.217 121.668 156.12 122.674 155.378C123.68 154.626 124.838 154.25 126.149 154.25C126.475 154.25 126.825 154.27 127.201 154.311C127.577 154.352 127.908 154.408 128.192 154.479V160.241C127.887 160.149 127.465 160.068 126.927 159.997C126.388 159.926 125.895 159.89 125.448 159.89C124.493 159.89 123.639 160.099 122.887 160.515C122.145 160.922 121.556 161.491 121.119 162.223C120.692 162.954 120.479 163.798 120.479 164.753V178H113.985ZM141.008 187.268C138.905 187.268 137.101 186.979 135.597 186.399C134.103 185.83 132.914 185.053 132.03 184.067C131.146 183.081 130.571 181.974 130.307 180.744L136.313 179.936C136.496 180.403 136.786 180.84 137.182 181.247C137.579 181.653 138.102 181.979 138.752 182.223C139.413 182.477 140.216 182.604 141.161 182.604C142.573 182.604 143.737 182.258 144.652 181.567C145.576 180.886 146.039 179.743 146.039 178.137V173.854H145.764C145.48 174.504 145.053 175.119 144.484 175.698C143.915 176.277 143.183 176.75 142.289 177.116C141.395 177.482 140.327 177.665 139.088 177.665C137.33 177.665 135.729 177.258 134.286 176.445C132.853 175.622 131.71 174.367 130.856 172.68C130.012 170.983 129.591 168.838 129.591 166.247C129.591 163.595 130.023 161.379 130.886 159.601C131.75 157.822 132.899 156.491 134.332 155.607C135.775 154.723 137.355 154.28 139.072 154.28C140.383 154.28 141.481 154.504 142.365 154.951C143.249 155.388 143.961 155.937 144.499 156.598C145.048 157.248 145.47 157.888 145.764 158.518H146.008V154.585H152.457V178.229C152.457 180.221 151.969 181.887 150.993 183.229C150.018 184.57 148.666 185.576 146.938 186.247C145.221 186.928 143.244 187.268 141.008 187.268ZM141.146 172.787C142.192 172.787 143.076 172.527 143.798 172.009C144.53 171.481 145.089 170.729 145.475 169.753C145.871 168.767 146.069 167.588 146.069 166.216C146.069 164.845 145.876 163.655 145.49 162.649C145.104 161.633 144.545 160.846 143.813 160.287C143.082 159.728 142.192 159.448 141.146 159.448C140.079 159.448 139.179 159.738 138.447 160.317C137.716 160.886 137.162 161.679 136.786 162.695C136.41 163.711 136.222 164.885 136.222 166.216C136.222 167.568 136.41 168.737 136.786 169.723C137.172 170.698 137.726 171.455 138.447 171.994C139.179 172.522 140.079 172.787 141.146 172.787ZM164.301 178.442C162.807 178.442 161.476 178.183 160.307 177.665C159.138 177.136 158.214 176.359 157.533 175.332C156.862 174.296 156.527 173.005 156.527 171.46C156.527 170.16 156.765 169.067 157.243 168.183C157.721 167.299 158.371 166.587 159.194 166.049C160.018 165.51 160.952 165.104 161.999 164.829C163.056 164.555 164.164 164.362 165.322 164.25C166.684 164.108 167.782 163.976 168.615 163.854C169.448 163.722 170.053 163.528 170.429 163.274C170.805 163.02 170.993 162.644 170.993 162.146V162.055C170.993 161.089 170.688 160.342 170.079 159.814C169.479 159.286 168.625 159.021 167.518 159.021C166.349 159.021 165.419 159.28 164.728 159.799C164.037 160.307 163.58 160.947 163.356 161.72L157.35 161.232C157.655 159.809 158.254 158.579 159.149 157.543C160.043 156.496 161.196 155.693 162.609 155.134C164.032 154.565 165.678 154.28 167.548 154.28C168.849 154.28 170.094 154.433 171.283 154.738C172.482 155.043 173.544 155.515 174.469 156.155C175.404 156.796 176.141 157.619 176.679 158.625C177.218 159.621 177.487 160.815 177.487 162.207V178H171.329V174.753H171.146C170.77 175.485 170.267 176.13 169.636 176.689C169.006 177.238 168.249 177.67 167.365 177.985C166.481 178.29 165.46 178.442 164.301 178.442ZM166.161 173.96C167.116 173.96 167.96 173.772 168.691 173.396C169.423 173.01 169.997 172.492 170.414 171.841C170.831 171.191 171.039 170.454 171.039 169.631V167.146C170.836 167.278 170.556 167.4 170.2 167.512C169.855 167.614 169.464 167.71 169.027 167.802C168.59 167.883 168.153 167.959 167.716 168.03C167.279 168.091 166.882 168.147 166.527 168.198C165.764 168.31 165.099 168.488 164.53 168.732C163.961 168.976 163.519 169.306 163.204 169.723C162.888 170.129 162.731 170.637 162.731 171.247C162.731 172.131 163.051 172.807 163.691 173.274C164.342 173.732 165.165 173.96 166.161 173.96ZM189.019 164.463V178H182.525V154.585H188.714V158.716H188.989C189.507 157.355 190.376 156.277 191.595 155.485C192.815 154.682 194.293 154.28 196.031 154.28C197.657 154.28 199.075 154.636 200.284 155.348C201.494 156.059 202.434 157.075 203.104 158.396C203.775 159.707 204.111 161.272 204.111 163.091V178H197.617V164.25C197.627 162.817 197.261 161.699 196.519 160.896C195.777 160.083 194.756 159.677 193.455 159.677C192.581 159.677 191.809 159.865 191.138 160.241C190.477 160.617 189.959 161.166 189.583 161.887C189.217 162.599 189.029 163.457 189.019 164.463ZM209.229 178V154.585H215.723V178H209.229ZM212.491 151.567C211.525 151.567 210.697 151.247 210.006 150.607C209.325 149.956 208.985 149.179 208.985 148.274C208.985 147.38 209.325 146.613 210.006 145.973C210.697 145.322 211.525 144.997 212.491 144.997C213.456 144.997 214.279 145.322 214.96 145.973C215.651 146.613 215.997 147.38 215.997 148.274C215.997 149.179 215.651 149.956 214.96 150.607C214.279 151.247 213.456 151.567 212.491 151.567ZM240.406 161.262L234.461 161.628C234.36 161.12 234.141 160.663 233.806 160.256C233.47 159.839 233.028 159.509 232.479 159.265C231.941 159.011 231.295 158.884 230.543 158.884C229.537 158.884 228.689 159.098 227.998 159.524C227.307 159.941 226.961 160.5 226.961 161.201C226.961 161.76 227.185 162.233 227.632 162.619C228.079 163.005 228.846 163.315 229.934 163.549L234.172 164.402C236.448 164.87 238.145 165.622 239.263 166.659C240.381 167.695 240.94 169.057 240.94 170.744C240.94 172.278 240.488 173.625 239.583 174.784C238.689 175.942 237.459 176.847 235.894 177.497C234.339 178.137 232.545 178.457 230.513 178.457C227.413 178.457 224.944 177.812 223.104 176.521C221.275 175.221 220.203 173.452 219.888 171.216L226.275 170.881C226.468 171.826 226.936 172.548 227.678 173.046C228.419 173.534 229.37 173.777 230.528 173.777C231.666 173.777 232.581 173.559 233.272 173.122C233.973 172.675 234.329 172.101 234.339 171.399C234.329 170.81 234.08 170.327 233.592 169.951C233.104 169.565 232.352 169.27 231.336 169.067L227.281 168.259C224.995 167.802 223.292 167.009 222.175 165.881C221.067 164.753 220.513 163.315 220.513 161.567C220.513 160.063 220.919 158.767 221.732 157.68C222.556 156.592 223.709 155.754 225.193 155.165C226.687 154.575 228.435 154.28 230.437 154.28C233.394 154.28 235.721 154.905 237.418 156.155C239.126 157.405 240.122 159.108 240.406 161.262ZM251.706 178.442C250.212 178.442 248.881 178.183 247.712 177.665C246.543 177.136 245.618 176.359 244.938 175.332C244.267 174.296 243.931 173.005 243.931 171.46C243.931 170.16 244.17 169.067 244.648 168.183C245.126 167.299 245.776 166.587 246.599 166.049C247.422 165.51 248.357 165.104 249.404 164.829C250.461 164.555 251.569 164.362 252.727 164.25C254.089 164.108 255.186 163.976 256.02 163.854C256.853 163.722 257.458 163.528 257.834 163.274C258.21 163.02 258.398 162.644 258.398 162.146V162.055C258.398 161.089 258.093 160.342 257.483 159.814C256.884 159.286 256.03 159.021 254.922 159.021C253.754 159.021 252.824 159.28 252.133 159.799C251.442 160.307 250.984 160.947 250.761 161.72L244.755 161.232C245.059 159.809 245.659 158.579 246.553 157.543C247.448 156.496 248.601 155.693 250.014 155.134C251.436 154.565 253.083 154.28 254.953 154.28C256.254 154.28 257.498 154.433 258.688 154.738C259.887 155.043 260.949 155.515 261.873 156.155C262.808 156.796 263.545 157.619 264.084 158.625C264.622 159.621 264.892 160.815 264.892 162.207V178H258.733V174.753H258.55C258.174 175.485 257.671 176.13 257.041 176.689C256.411 177.238 255.654 177.67 254.77 177.985C253.886 178.29 252.864 178.442 251.706 178.442ZM253.566 173.96C254.521 173.96 255.364 173.772 256.096 173.396C256.828 173.01 257.402 172.492 257.819 171.841C258.235 171.191 258.444 170.454 258.444 169.631V167.146C258.24 167.278 257.961 167.4 257.605 167.512C257.26 167.614 256.868 167.71 256.431 167.802C255.994 167.883 255.557 167.959 255.12 168.03C254.683 168.091 254.287 168.147 253.931 168.198C253.169 168.31 252.504 168.488 251.934 168.732C251.365 168.976 250.923 169.306 250.608 169.723C250.293 170.129 250.136 170.637 250.136 171.247C250.136 172.131 250.456 172.807 251.096 173.274C251.746 173.732 252.57 173.96 253.566 173.96ZM282.384 154.585V159.463H268.284V154.585H282.384ZM271.485 148.976H277.979V170.805C277.979 171.404 278.07 171.872 278.253 172.207C278.436 172.533 278.69 172.761 279.015 172.893C279.351 173.025 279.737 173.091 280.174 173.091C280.479 173.091 280.784 173.066 281.088 173.015C281.393 172.954 281.627 172.909 281.79 172.878L282.811 177.71C282.486 177.812 282.028 177.929 281.439 178.061C280.85 178.203 280.133 178.29 279.29 178.32C277.725 178.381 276.353 178.173 275.174 177.695C274.005 177.217 273.096 176.476 272.445 175.47C271.795 174.463 271.475 173.193 271.485 171.659V148.976ZM286.614 178V154.585H293.108V178H286.614ZM289.877 151.567C288.911 151.567 288.083 151.247 287.392 150.607C286.711 149.956 286.37 149.179 286.37 148.274C286.37 147.38 286.711 146.613 287.392 145.973C288.083 145.322 288.911 144.997 289.877 144.997C290.842 144.997 291.665 145.322 292.346 145.973C293.037 146.613 293.383 147.38 293.383 148.274C293.383 149.179 293.037 149.956 292.346 150.607C291.665 151.247 290.842 151.567 289.877 151.567ZM308.889 178.457C306.522 178.457 304.474 177.954 302.746 176.948C301.029 175.932 299.702 174.519 298.768 172.71C297.833 170.891 297.365 168.783 297.365 166.384C297.365 163.965 297.833 161.852 298.768 160.043C299.702 158.224 301.029 156.811 302.746 155.805C304.474 154.789 306.522 154.28 308.889 154.28C311.257 154.28 313.3 154.789 315.018 155.805C316.745 156.811 318.076 158.224 319.011 160.043C319.946 161.852 320.414 163.965 320.414 166.384C320.414 168.783 319.946 170.891 319.011 172.71C318.076 174.519 316.745 175.932 315.018 176.948C313.3 177.954 311.257 178.457 308.889 178.457ZM308.92 173.427C309.997 173.427 310.897 173.122 311.618 172.512C312.34 171.892 312.883 171.049 313.249 169.982C313.625 168.915 313.813 167.7 313.813 166.338C313.813 164.977 313.625 163.762 313.249 162.695C312.883 161.628 312.34 160.785 311.618 160.165C310.897 159.545 309.997 159.235 308.92 159.235C307.833 159.235 306.918 159.545 306.176 160.165C305.444 160.785 304.89 161.628 304.514 162.695C304.149 163.762 303.966 164.977 303.966 166.338C303.966 167.7 304.149 168.915 304.514 169.982C304.89 171.049 305.444 171.892 306.176 172.512C306.918 173.122 307.833 173.427 308.92 173.427ZM331.13 164.463V178H324.636V154.585H330.825V158.716H331.1C331.618 157.355 332.487 156.277 333.707 155.485C334.926 154.682 336.405 154.28 338.143 154.28C339.769 154.28 341.186 154.636 342.396 155.348C343.605 156.059 344.545 157.075 345.216 158.396C345.886 159.707 346.222 161.272 346.222 163.091V178H339.728V164.25C339.738 162.817 339.372 161.699 338.63 160.896C337.888 160.083 336.867 159.677 335.566 159.677C334.692 159.677 333.92 159.865 333.249 160.241C332.589 160.617 332.07 161.166 331.694 161.887C331.329 162.599 331.141 163.457 331.13 164.463Z" fill="black"/>
</svg>
